<svg width="608" height="578" fill="none" xmlns="http://www.w3.org/2000/svg"><g filter="url(#a)"><path d="M205.504 43.23a22.979 22.979 0 0 1 5.654-2.46l1.156-5.646 9.436-.172 1.362 5.61c2 .498 3.926 1.263 5.727 2.275l4.767-3.162 6.797 6.643-2.955 4.92a23.349 23.349 0 0 1 2.432 5.707l5.582 1.168.17 9.545-5.545 1.365a23.52 23.52 0 0 1-2.25 5.794l3.126 4.834-6.567 6.863-4.864-2.989a22.82 22.82 0 0 1-5.642 2.46l-1.216 5.646-9.436.172-1.362-5.609a23.054 23.054 0 0 1-5.715-2.275l-4.779 3.16-6.822-6.629 2.955-4.92a23.528 23.528 0 0 1-2.432-5.72l-5.582-1.23-.17-9.544 5.545-1.378a23.703 23.703 0 0 1 2.25-5.793l-3.125-4.834 6.639-6.79 4.864 2.99Zm5.034 12.718a10.286 10.286 0 0 0-2.683 5.293 10.357 10.357 0 0 0 .676 5.91 10.213 10.213 0 0 0 3.808 4.532 10.042 10.042 0 0 0 5.655 1.63 10.053 10.053 0 0 0 5.598-1.823 10.235 10.235 0 0 0 3.653-4.661c.735-1.885.901-3.948.477-5.929a10.28 10.28 0 0 0-2.859-5.198 10.128 10.128 0 0 0-3.333-2.179 10.04 10.04 0 0 0-7.782.133 10.134 10.134 0 0 0-3.258 2.292h.048ZM207.693 360.004a13.194 13.194 0 0 1 3.259-1.426l.668-3.26 5.448-.098.778 3.235a13.16 13.16 0 0 1 3.308 1.303l2.748-1.82 3.916 3.825-1.642 2.817a13.555 13.555 0 0 1 1.411 3.296l3.222.677.097 5.51-3.198.788a13.494 13.494 0 0 1-1.289 3.345l1.8 2.78-3.782 3.96-2.809-1.722a13.731 13.731 0 0 1-3.259 1.44l-.705 3.296-5.448.098-.778-3.234a13.194 13.194 0 0 1-3.307-1.304l-2.749 1.82-3.915-3.825 1.702-2.841a14.068 14.068 0 0 1-1.422-3.297l-3.211-.676-.097-5.511 3.198-.787a13.486 13.486 0 0 1 1.289-3.346l-1.8-2.779 3.782-3.961 2.809 1.722-.024-.025Zm2.906 7.38a5.948 5.948 0 0 0-1.553 3.058 5.978 5.978 0 0 0 .389 3.414 5.906 5.906 0 0 0 2.2 2.62c.974.633 2.111.96 3.269.94a5.805 5.805 0 0 0 3.233-1.057 5.903 5.903 0 0 0 2.108-2.696 5.983 5.983 0 0 0 .27-3.426 5.943 5.943 0 0 0-1.659-3 5.83 5.83 0 0 0-1.909-1.258 5.774 5.774 0 0 0-4.469.053 5.832 5.832 0 0 0-1.879 1.303v.049ZM89.109 73.599a9.188 9.188 0 0 1 2.225-.984l.462-2.226h3.709l.559 2.14a9.663 9.663 0 0 1 2.262.898l1.872-1.23 2.676 2.607-1.216 1.944c.42.703.747 1.46.972 2.25l2.201.468v3.69l-2.188.541a9.353 9.353 0 0 1-.876 2.288l1.216 1.894-2.578 2.706-1.921-1.23a9.187 9.187 0 0 1-2.225.984l-.463 2.227h-3.648l-.535-2.215a9.107 9.107 0 0 1-2.261-.885l-1.873 1.23-2.675-2.62 1.216-1.931a9.408 9.408 0 0 1-.973-2.251l-2.2-.467-.062-3.69 2.177-.542c.2-.797.498-1.565.888-2.287l-1.216-1.895 2.578-2.706 1.92 1.23-.023.062Zm1.982 5.006a4.052 4.052 0 0 0-1.056 2.084 4.078 4.078 0 0 0 .268 2.327 4.023 4.023 0 0 0 1.5 1.784 3.954 3.954 0 0 0 4.43-.078 4.028 4.028 0 0 0 1.438-1.835c.289-.742.354-1.554.187-2.334a4.047 4.047 0 0 0-1.125-2.046 3.95 3.95 0 0 0-5.642.098Z" fill="#E0E0E0"/><path d="M270.633 65.69a17.892 17.892 0 0 1 4.39-1.931l.9-4.391 7.296-.136 1.057 4.367c1.56.386 3.061.981 4.463 1.771l3.648-2.46 5.387 5.24-2.286 3.788a18.13 18.13 0 0 1 1.909 4.453l4.353.91.122 7.38-4.305 1.07a18.649 18.649 0 0 1-1.775 4.539l2.432 3.764-5.095 5.338-3.794-2.325a18.128 18.128 0 0 1-4.39 1.931l-.912 4.391-7.296.136-1.058-4.367a17.725 17.725 0 0 1-4.511-1.759l-3.648 2.46-5.29-5.153 2.299-3.838a18.507 18.507 0 0 1-1.909-4.453l-4.342-.91-.133-7.38 4.316-1.07a18.228 18.228 0 0 1 1.751-4.502l-2.432-3.763 5.096-5.339 3.757 2.239Zm3.915 9.84a8.008 8.008 0 0 0-2.082 4.12 8.053 8.053 0 0 0 .532 4.597 7.952 7.952 0 0 0 2.967 3.523 7.815 7.815 0 0 0 4.402 1.261 7.817 7.817 0 0 0 4.353-1.425 7.951 7.951 0 0 0 2.836-3.632 8.05 8.05 0 0 0 .363-4.613 7.987 7.987 0 0 0-2.232-4.04 7.856 7.856 0 0 0-2.601-1.66 7.787 7.787 0 0 0-6.03.166 7.873 7.873 0 0 0-2.508 1.801v-.098Z" fill="#EBEBEB"/><path d="M464.767 249.083a22.754 22.754 0 0 1 5.63-2.46l1.216-5.646 9.424-.172 1.362 5.609a22.675 22.675 0 0 1 5.728 2.275l4.754-3.161 6.786 6.63-2.943 4.92a24.052 24.052 0 0 1 2.432 5.707l5.581 1.23.171 9.533-5.545 1.377a23.154 23.154 0 0 1-2.25 5.781l3.125 4.822-6.542 6.789-4.864-2.988a23.018 23.018 0 0 1-5.642 2.46l-1.216 5.645-9.424.16-1.362-5.584a23.013 23.013 0 0 1-5.715-2.276l-4.767 3.162-6.785-6.63 2.955-4.92a23.255 23.255 0 0 1-2.432-5.695l-5.582-1.23-.158-9.471 5.533-1.378a23.705 23.705 0 0 1 2.249-5.793l-3.125-4.809 6.555-6.864 4.864 2.989-.013-.012Zm5.022 12.706a10.281 10.281 0 0 0-2.673 5.289 10.346 10.346 0 0 0 .682 5.9 10.205 10.205 0 0 0 3.806 4.523 10.032 10.032 0 0 0 5.65 1.622c2-.036 3.945-.671 5.588-1.825a10.21 10.21 0 0 0 3.645-4.657 10.35 10.35 0 0 0 .473-5.921 10.263 10.263 0 0 0-2.858-5.189 10.085 10.085 0 0 0-3.321-2.165 10 10 0 0 0-7.749.139 10.103 10.103 0 0 0-3.243 2.284ZM531.392 63.5a26.08 26.08 0 0 0-2.627-11.458 25.775 25.775 0 0 0-7.377-9.092 25.405 25.405 0 0 0-10.598-4.84 25.253 25.253 0 0 0-11.621.415 25.451 25.451 0 0 0-10.235 5.584 25.828 25.828 0 0 0-6.725 9.595 26.09 26.09 0 0 0 1.637 22.847l.073.098c.973 1.673 2.201 2.866 3.442 4.613l14.847 19.877a4.617 4.617 0 0 0 1.616 1.335 4.566 4.566 0 0 0 4.064 0 4.617 4.617 0 0 0 1.616-1.335l14.592-19.545a55.421 55.421 0 0 0 3.709-4.92l.061-.074a25.92 25.92 0 0 0 3.526-13.1Zm-25.536 11.243a11.144 11.144 0 0 1-6.239-1.922 11.342 11.342 0 0 1-4.133-5.103 11.49 11.49 0 0 1-.634-6.565 11.406 11.406 0 0 1 3.078-5.816 11.19 11.19 0 0 1 5.753-3.107 11.117 11.117 0 0 1 6.49.649 11.265 11.265 0 0 1 5.04 4.186 11.486 11.486 0 0 1 1.037 10.665 11.395 11.395 0 0 1-2.439 3.688 11.235 11.235 0 0 1-3.649 2.463c-1.365.57-2.827.863-4.304.862Z" fill="#E0E0E0"/><path d="M81.8 435.243a16.25 16.25 0 0 0 5.76-7.328 16.462 16.462 0 0 0 .819-9.326c-1.666-8.843-9.728-14.76-17.863-13.173-8.135 1.587-13.498 10.024-11.832 18.88a16.321 16.321 0 0 0 4.198 8.429 16.02 16.02 0 0 0 8.12 4.646c-22.155 7.971-16.282 32.866-16.282 32.866l54.027-10.381s-3.648-25.609-26.947-24.613ZM147.258 541.368l-11.066-2.78s-2.298 9.447-12.051 7.196a9.252 9.252 0 0 1-4.909-2.812 9.428 9.428 0 0 1-2.387-5.171c-.23-1.619-.077-3.27.445-4.818a10.377 10.377 0 0 1 2.559-4.087c2.651-2.682 7.491-4.514 14.592-1.304l6.189-25.375-11.004-2.743-3.648 14.871s-16.404.184-20.587 17.38c-4.013 16.457 9.643 23.911 15.893 25.461 4.791 1.193 21.341 4.083 25.974-15.818ZM130.759 494.22l11.157 2.781 2.569-10.546-11.158-2.781-2.568 10.546Z" fill="#EBEBEB"/><path d="M70.528 270.116H95.93l-2.237 11.525H47.935l1.812-9.163 27.542-21.833c6.81-5.51 8.889-8.733 8.889-12.755s-3.028-6.728-8.889-6.728a16.58 16.58 0 0 0-7.13 1.733 16.763 16.763 0 0 0-5.711 4.651l-9.412-6.901c4.864-6.728 13.899-11.18 24.32-11.18 12.78 0 21.146 6.9 21.146 16.42 0 7.245-3.27 13.358-13.898 21.66l-16.076 12.571ZM156.451 268.812h-9.923l-2.505 12.829H130.38l2.59-12.829h-32.553l1.812-9.52 35.58-38.782h15.273l-33.148 36.765h15.881l2.25-11.439H151.1l-2.249 11.439h9.934l-2.334 11.537ZM196.335 208.112h12.61l-44.372 82.262H152l44.335-82.262ZM253.925 220.51l-1.812 9.176-32.285 51.955h-15.54l30.984-49.606h-19.59l-1.994 9.963H201.26l4.244-21.488h48.421ZM42.28 329.869l3.539-6.789a19.705 19.705 0 0 0 10.555 3.161c3.453 0 5.447-1.095 5.447-2.841 0-4.318-15.418-1.931-15.418-12.017 0-6.925 5.849-11.464 15.236-11.464a22.012 22.012 0 0 1 11.418 2.755l-3.259 6.74a16.26 16.26 0 0 0-8.706-2.46c-3.721 0-5.715 1.378-5.715 3.125 0 4.403 15.419 1.882 15.419 11.783 0 6.876-5.983 11.414-15.273 11.414-5.448.025-10.385-1.439-13.243-3.407ZM86.786 307.582l-1.034 5.412h14.094l-1.35 6.777H84.39l-1.143 5.88h16.647l-1.459 7.01H72.96l6.396-32.041H104.2l-1.411 7.023-16.002-.061ZM127.352 323.031l5.399 9.63h-9.388l-4.718-8.523h-4.523l-1.678 8.523h-8.975l6.336-32.041h13.558c8.111 0 12.78 3.813 12.78 10.234a12.477 12.477 0 0 1-2.353 7.597 12.242 12.242 0 0 1-6.438 4.58Zm-5.253-15.314h-4.719l-1.86 9.397h5.35c3.952 0 6.263-1.919 6.263-5.449-.049-2.706-1.958-3.948-5.034-3.948ZM175.481 300.62l-19.833 32.041h-8.84l-7.272-32.041h9.205l4.536 20.91 12.962-20.91h9.242ZM177.378 300.62h8.986l-6.396 32.041h-8.974l6.384-32.041ZM187.763 319.181c0-11.144 8.11-19.262 19.893-19.262 5.849 0 10.616 2.165 12.878 6.052l-6.518 5.227a7.752 7.752 0 0 0-2.989-2.815 7.643 7.643 0 0 0-3.991-.875c-6.165 0-10.251 4.809-10.251 11.131 0 4.318 2.907 7.208 7.758 7.208a9.845 9.845 0 0 0 4.286-.959 9.954 9.954 0 0 0 3.46-2.731l5.302 5.265c-3.575 4.366-8.244 5.965-13.911 5.965-9.704-.086-15.917-5.818-15.917-14.206ZM233.63 307.582l-1.046 5.412h14.094l-1.314 6.777h-14.142l-1.13 5.88h16.634l-1.447 7.01h-25.426l6.323-32.041h24.843l-1.399 7.023-15.99-.061Z" fill="#263238"/><path d="M76.79 202.417H59.073c0-24.945 9.984-50.43 27.385-69.987 18.313-20.553 42.085-31.869 66.88-31.869 50.67 0 86.068 37.416 86.068 91.02h-17.681c0-43.702-27.469-73.062-68.351-73.062-40.079-.037-76.584 39.962-76.584 83.898Z" fill="#5ED8FF"/><path d="M86.506 197.435c2.834 0 5.132.283 5.12.542-.013.258-2.299.455-5.12.455-2.82 0-5.131-.234-5.131-.542 0-.307 2.31-.504 5.131-.455ZM98.74 158.149c2.431 1.575 4.073 3.186 3.805 3.616-.267.431-2.432-.443-4.864-1.931s-4.049-3.124-3.794-3.616c.256-.492 2.481.369 4.852 1.931ZM129.382 131.077c1.156 2.62 1.727 4.92 1.216 5.117-.51.196-1.811-1.71-3.052-4.281-1.24-2.57-1.812-4.92-1.216-5.117.596-.196 1.909 1.624 3.052 4.281ZM169.754 127.854c-.706 2.78-1.666 4.92-2.141 4.822-.474-.099-.377-2.46.231-5.277s1.557-4.92 2.141-4.809c.583.11.474 2.497-.231 5.264ZM202.732 151.298c-2.36 1.574-4.488 2.534-4.767 2.14-.28-.393 1.362-2.091 3.648-3.776 2.286-1.685 4.426-2.632 4.767-2.14.34.492-1.289 2.189-3.648 3.776ZM213.59 189.92c-2.821 0-5.119-.221-5.119-.467 0-.246 2.286-.492 5.119-.529 2.834-.037 5.12.172 5.132.467.012.295-2.274.529-5.132.529Z" fill="#263238"/><path d="M148.534 195.258a3.844 3.844 0 0 1-2.432-.848l-29.779-23.371a4.027 4.027 0 0 1-.681-5.608 3.918 3.918 0 0 1 5.545-.689l27.165 21.304 37.514-34.846a3.913 3.913 0 0 1 2.827-1.063 3.926 3.926 0 0 1 2.742 1.272 4.01 4.01 0 0 1 1.05 2.86 4.006 4.006 0 0 1-1.257 2.773l-39.97 37.146a3.937 3.937 0 0 1-2.724 1.07ZM168.732 74.214h-34.145a.966.966 0 0 0-.961.972v12.509c0 .536.43.971.961.971h34.145a.966.966 0 0 0 .961-.971v-12.51a.966.966 0 0 0-.961-.971Z" fill="#5ED8FF"/><path d="M160.974 81.446h-18.641v17.097h18.641V81.446ZM74.712 118.444l-14.003 17.542a1.599 1.599 0 0 0 .235 2.231l9.574 7.82a1.556 1.556 0 0 0 2.206-.238l14.003-17.541a1.599 1.599 0 0 0-.235-2.231l-9.575-7.82a1.557 1.557 0 0 0-2.206.237Z" fill="#5ED8FF"/><path d="M168.732 88.666c0 .21-7.648.37-17.024.37-9.375 0-17.024-.16-17.024-.37 0-.209 7.637-.369 17.024-.369 9.388 0 17.024.173 17.024.37ZM74.395 142.786c-.195.222-2.773-1.771-5.959-4.194-3.185-2.423-5.776-4.391-5.617-4.637.158-.246 3.015 1.353 6.238 3.801 3.222 2.447 5.52 4.821 5.338 5.03ZM77.362 138.371c-.195.221-2.772-1.771-5.959-4.195-3.185-2.423-5.788-4.391-5.63-4.637.159-.246 3.028 1.353 6.25 3.813 3.223 2.46 5.521 4.81 5.339 5.019ZM80.998 134.668c-.183.222-2.76-1.771-5.947-4.194-3.185-2.423-5.739-4.391-5.63-4.637.11-.246 3.028 1.353 6.238 3.813 3.21 2.46 5.533 4.809 5.339 5.018ZM84.524 130.253c-.182.221-2.772-1.771-5.958-4.195-3.186-2.423-5.776-4.391-5.606-4.637.17-.246 3.028 1.353 6.238 3.813 3.21 2.46 5.509 4.81 5.326 5.019Z" fill="#263238"/><path d="m237.372 123.989-15.073-16.61a1.557 1.557 0 0 0-2.216-.096l-9.066 8.418a1.6 1.6 0 0 0-.095 2.242l15.073 16.609a1.555 1.555 0 0 0 2.216.096l9.066-8.417a1.6 1.6 0 0 0 .095-2.242Z" fill="#5ED8FF"/><path d="M213.615 120.081c-.183-.222 2.14-2.46 4.985-5.339 2.846-2.878 5.144-5.129 5.363-4.92.219.21-1.763 2.829-4.645 5.683-2.882 2.854-5.533 4.785-5.703 4.576ZM217.494 123.697c-.195-.222 2.14-2.46 4.973-5.338 2.833-2.879 5.156-5.129 5.375-4.92.219.209-1.775 2.829-4.645 5.682-2.87 2.854-5.533 4.785-5.703 4.576ZM220.57 127.891c-.194-.221 2.14-2.46 4.974-5.338 2.833-2.878 5.156-5.129 5.374-4.92.219.209-1.775 2.817-4.657 5.67-2.882 2.854-5.521 4.797-5.691 4.588ZM224.364 132.11c-.194-.221 2.14-2.46 4.974-5.338 2.833-2.878 5.155-5.129 5.374-4.92.219.209-1.775 2.829-4.657 5.682-2.882 2.854-5.521 4.748-5.691 4.576ZM138.417 88.654c-.279 0-.51-3.198-.51-7.122 0-3.923.231-7.134.51-7.134.28 0 .523 3.198.523 7.134 0 3.936-.231 7.122-.523 7.122ZM145.105 88.654c-.279 0-.51-3.198-.51-7.122 0-3.923.231-7.134.51-7.134.28 0 .511 3.198.511 7.134 0 3.936-.231 7.122-.511 7.122ZM151.781 88.654c-.28 0-.511-3.198-.511-7.122 0-3.923.231-7.134.511-7.134s.511 3.198.511 7.134c0 3.936-.219 7.122-.511 7.122ZM158.469 88.654c-.292 0-.511-3.198-.511-7.122 0-3.923.219-7.134.511-7.134.292 0 .511 3.198.511 7.134 0 3.936-.231 7.122-.511 7.122ZM165.145 88.654c-.28 0-.511-3.198-.511-7.122 0-3.923.231-7.134.511-7.134s.511 3.198.511 7.134c0 3.936-.28 7.122-.511 7.122Z" fill="#263238"/><path d="M155.762 196.288c3.486-3.526 3.486-9.242 0-12.768a8.853 8.853 0 0 0-12.622 0c-3.486 3.526-3.486 9.242 0 12.768a8.854 8.854 0 0 0 12.622 0Z" fill="#5ED8FF"/><path d="M158.372 189.92c-.085 0-.073-.799-.45-2.165a8.957 8.957 0 0 0-3.271-4.748 8.427 8.427 0 0 0-8.9-.779 8.554 8.554 0 0 0-3.421 3.174 8.692 8.692 0 0 0 0 9.036 8.554 8.554 0 0 0 3.421 3.174 8.427 8.427 0 0 0 8.9-.779 9.01 9.01 0 0 0 3.271-4.748c.377-1.366.365-2.165.45-2.165.085 0 0 .197 0 .578a6.236 6.236 0 0 1-.17 1.673 8.97 8.97 0 0 1-3.211 5.178 9.162 9.162 0 0 1-4.205 1.868 9.114 9.114 0 0 1-4.574-.416 9.33 9.33 0 0 1-4.496-3.444 9.495 9.495 0 0 1-1.707-5.437c0-1.947.596-3.846 1.707-5.437a9.33 9.33 0 0 1 4.496-3.444 9.163 9.163 0 0 1 8.779 1.44 9.016 9.016 0 0 1 3.211 5.19c.132.547.189 1.11.17 1.673.061.357.036.578 0 .578Z" fill="#263238"/><path d="m463.624 220.842 15.249-2.46c9.994 8.157 22.644 12.237 35.462 11.439 12.817-.799 24.876-6.419 33.805-15.755 8.929-9.336 14.083-21.712 14.448-34.697.365-12.985-4.085-25.638-12.475-35.472s-20.114-16.138-32.866-17.672c-12.752-1.534-25.61 1.812-36.047 9.382-10.436 7.569-17.696 18.813-20.352 31.522a52.539 52.539 0 0 0 5.999 37.157l-3.223 16.556Z" fill="#fff"/><path d="M463.624 220.842s0-.344.171-1.045l.583-3.149c.523-2.829 1.301-6.974 2.311-12.386a.125.125 0 0 1 .018-.05.119.119 0 0 1 .038-.036.112.112 0 0 1 .05-.018.132.132 0 0 1 .052.005.078.078 0 0 1 .073 0l-.219.173a52.633 52.633 0 0 1-7.162-24.465 51.591 51.591 0 0 1 .304-8.044 56.926 56.926 0 0 1 1.726-8.45c2.872-10.035 8.657-18.967 16.605-25.638a51.264 51.264 0 0 1 27.974-11.779 50.959 50.959 0 0 1 23.734 3.403 51.51 51.51 0 0 1 19.641 13.903l2.067 2.46c.644.861 1.216 1.759 1.848 2.62a51.662 51.662 0 0 1 3.271 5.461c.535.91.876 1.919 1.326 2.866.449.947.912 1.894 1.216 2.903a49.658 49.658 0 0 1 1.787 5.978 53.73 53.73 0 0 1 .182 24.009c-2.345 10.289-7.721 19.617-15.417 26.75a51.336 51.336 0 0 1-27.69 13.201 55.35 55.35 0 0 1-8.573.504 66.564 66.564 0 0 1-7.94-.861 50.69 50.69 0 0 1-22.812-10.676h.109l-11.406 1.734-2.906.43-.961.136 1.01-.185 2.93-.492 11.285-1.894h.109a50.658 50.658 0 0 0 22.715 10.467c2.607.44 5.239.715 7.88.824 2.846.047 5.692-.13 8.512-.528a50.967 50.967 0 0 0 27.336-13.144c7.595-7.068 12.901-16.292 15.224-26.462a53.222 53.222 0 0 0-.207-23.727 54.483 54.483 0 0 0-1.763-5.904c-.304-.996-.815-1.907-1.216-2.866-.402-.959-.791-1.931-1.314-2.829a49.143 49.143 0 0 0-3.234-5.387c-.608-.861-1.216-1.747-1.824-2.596l-2.043-2.46a50.953 50.953 0 0 0-19.397-13.742 50.432 50.432 0 0 0-23.443-3.392 50.855 50.855 0 0 0-20.069 6.395 51.436 51.436 0 0 0-15.839 14.011 51.519 51.519 0 0 0-8.196 16.691 57.556 57.556 0 0 0-1.739 8.364 50.944 50.944 0 0 0-.34 7.983 52.493 52.493 0 0 0 6.943 24.341.136.136 0 0 1 0 .185.133.133 0 0 1-.17 0l.219-.074c-1.07 5.351-1.897 9.459-2.432 12.3-.28 1.39-.499 2.46-.645 3.174-.146.713-.292 1.008-.292 1.008Z" fill="#263238"/><path d="M526.723 179.44a5.311 5.311 0 0 1 .874-2.936 5.236 5.236 0 0 1 2.34-1.949 5.172 5.172 0 0 1 5.691 1.142 5.326 5.326 0 0 1 1.128 5.756 5.259 5.259 0 0 1-1.926 2.368c-.86.578-1.87.886-2.903.884a5.183 5.183 0 0 1-3.676-1.546 5.302 5.302 0 0 1-1.528-3.719ZM505.856 179.44a5.332 5.332 0 0 1 .873-2.935 5.231 5.231 0 0 1 2.339-1.948 5.157 5.157 0 0 1 3.015-.306 5.193 5.193 0 0 1 2.674 1.442 5.288 5.288 0 0 1 1.431 2.701 5.333 5.333 0 0 1-.295 3.051 5.27 5.27 0 0 1-1.921 2.37c-.858.58-1.867.89-2.899.89a5.187 5.187 0 0 1-3.685-1.541 5.307 5.307 0 0 1-1.532-3.724ZM485.05 182.073a5.33 5.33 0 0 1 .379-5.851 5.224 5.224 0 0 1 2.462-1.785 5.165 5.165 0 0 1 3.027-.1c.996.27 1.892.833 2.572 1.618a5.323 5.323 0 0 1 .756 5.813 5.248 5.248 0 0 1-2.07 2.236 5.178 5.178 0 0 1-3.957.522 5.24 5.24 0 0 1-3.169-2.453Z" fill="#263238"/><path d="M120.737 368.27c-3.198-1.538-8.585-4.748-11.917-6.002a15.64 15.64 0 0 0-10.421-.714c-1.958.664-3.916 2.251-3.928 4.342l13.072 9.754 13.194-3.518v-3.862Z" fill="#FF9A6C"/><path d="M106.436 368.135s-23.48-5.154-27.396-7.184c-3.916-2.029-24.32-12.361-27.737-12.361-3.417 0-6.335.935-6.956 4.379l4.463 3.505.572 1.796 7.636 4.022 1.35 2.534 19.456 10.504s20.404 10.48 23.809 11.07c3.405.591 20.405 2.03 27.676 8.29l29.184-12.127s-8.426-12.104-14.92-15.093c-5.788-2.656-15.504-2.656-22.301.16l-14.836.505Z" fill="#FFBF9D"/><path d="M125.965 387.95s37.149 81.943 43.132 98.4c0 0 41.526-6.913 42.949-30.221l-53.504-73.8-32.577 5.621Z" fill="#FFBF9D"/><path d="M91.468 369.992h-.402a5.486 5.486 0 0 1-1.118-.234 23.82 23.82 0 0 1-3.867-1.574c-1.581-.775-3.417-1.796-5.436-2.94-1.01-.566-2.067-1.168-3.174-1.746-1.106-.578-2.31-1.083-3.538-1.624a48.396 48.396 0 0 0-7.029-2.583c-2.2-.553-4.316-.972-5.91-.43a4.859 4.859 0 0 0-1.646 1.104 4.925 4.925 0 0 0-1.077 1.675c-.18.479-.387.948-.62 1.403 0 0 0-.148.06-.394.082-.377.191-.747.329-1.107a6.84 6.84 0 0 1 .863-1.611 4.185 4.185 0 0 1 1.897-1.501 6.565 6.565 0 0 1 2.93-.295c1.104.11 2.197.303 3.272.578a46.54 46.54 0 0 1 7.174 2.558c1.216.542 2.432 1.046 3.563 1.649 1.13.602 2.176 1.23 3.186 1.808 2.006 1.168 3.806 2.226 5.35 3.038a30.453 30.453 0 0 0 3.709 1.734c.949.357 1.484.431 1.484.492Z" fill="#FF9A6C"/><path d="M69.069 358.209a12.884 12.884 0 0 1-3.296-1.157 66.804 66.804 0 0 0-7.721-3.111 11.572 11.572 0 0 0-4.439-.382 4.357 4.357 0 0 0-3.137 1.476 5.235 5.235 0 0 0-.912 2.251 2.952 2.952 0 0 1-.182.923 2.654 2.654 0 0 1 0-.948 4.962 4.962 0 0 1 .802-2.46 4.18 4.18 0 0 1 1.41-1.23 6.249 6.249 0 0 1 2.02-.578 11.677 11.677 0 0 1 4.681.357 45.936 45.936 0 0 1 7.734 3.321c1.04.457 2.055.97 3.04 1.538ZM127.68 365.81s-.328.197-.948.418c-.89.325-1.795.604-2.712.837a43.33 43.33 0 0 1-9.23 1.389 44.766 44.766 0 0 1-9.314-.565c-1.216-.209-2.116-.418-2.76-.603a2.996 2.996 0 0 1-.985-.332c0-.099 1.459.184 3.818.48 3.057.382 6.14.51 9.217.381a56.863 56.863 0 0 0 9.157-1.23c2.249-.443 3.672-.861 3.757-.775Z" fill="#FF9A6C"/><path d="m473.559 317.164-54.039-11.317-13.376-10.147-71.379 13.924c-1.143 2.115-12.707 18.45-12.707 18.45l-28.114 9.655c-11.949 3.176-22.614 10.058-30.498 19.68a127.445 127.445 0 0 0-18.24 30.873c-12.646 30.024-30.898 64.71-30.898 64.71l-11.443-18.646-48.226 22.976s28.247 57.601 37.598 65.83c10.397 9.139 34.304 10.196 50.829-6.851 9.959-10.283 38.742-50.922 44.737-61.095l8.901 42.534 8.184 48.548-13.23 33.419h193.1l-7.989-31.586s7.868-82.324 10.044-97.65c5.12-36.15-13.254-133.307-13.254-133.307Z" fill="#5ED8FF"/><path d="M473.559 317.164s38.669 10.971 47.181 49.851c5.156 23.555 22.666 90.701 28.831 145.977 3.648 32.865 3.551 63.234 3.648 66.715h-59.341l-25.146-251.572 4.827-10.971Z" fill="#5ED8FF"/><path d="M374.382 350.546s0 .147-.158.406l-.547 1.131c-.487.996-1.216 2.46-2.007 4.318-1.714 3.69-3.733 9.163-6.992 15.276l-.158.308-.267-.234c-4.013-3.456-8.366-7.614-12.865-12.103-7.965-7.995-14.945-15.437-20.101-20.714l-6.141-6.236-1.69-1.685a4.236 4.236 0 0 1-.559-.615c.235.15.451.328.644.529l1.751 1.599c1.508 1.402 3.648 3.481 6.287 6.089 5.241 5.203 12.281 12.595 20.222 20.578 4.499 4.489 8.828 8.61 12.792 12.127l-.437.074c3.283-6.027 5.374-11.476 7.174-15.141a85.96 85.96 0 0 1 2.164-4.256c.244-.43.45-.799.621-1.082.075-.133.165-.256.267-.369ZM420.274 307.237c-.004.291-.041.58-.11.861-.121.615-.267 1.427-.449 2.46-.438 2.116-1.216 5.166-2.214 8.881-2.103 7.38-5.508 17.577-9.728 28.585-2.225 5.83-4.414 11.341-6.457 16.224l-.158.381-.304-.27c-5.508-4.92-10.445-8.795-13.789-11.673a173.057 173.057 0 0 1-3.879-3.407l-.985-.935c-.231-.221-.341-.332-.328-.344.14.074.27.164.389.27l1.045.874 3.977 3.271c3.417 2.805 8.39 6.605 13.959 11.501l-.462.11a739.662 739.662 0 0 0 6.397-16.223c4.17-11.07 7.636-21.095 9.837-28.487a233.961 233.961 0 0 0 2.432-8.819c.231-.996.426-1.796.572-2.46.065-.273.15-.54.255-.8ZM295.184 492.291a.886.886 0 0 1-.109-.271l-.256-.836c-.219-.82-.523-1.902-.912-3.247-.413-1.402-.815-3.137-1.301-5.154a203.401 203.401 0 0 1-1.532-6.888 342.515 342.515 0 0 1-5.667-40.418c-1.374-15.904-1.678-30.356-1.605-40.799 0-5.227.134-9.459.28-12.374.073-1.426.122-2.546.158-3.37 0-.344 0-.639.061-.873a1.12 1.12 0 0 1 0-.295c.01.102.01.205 0 .307v4.231c0 2.928-.097 7.147-.073 12.374 0 10.431.413 24.871 1.787 40.738a376.804 376.804 0 0 0 5.472 40.393c.499 2.558.961 4.92 1.435 6.888.474 1.968.827 3.776 1.216 5.178l.803 3.272.182.849c.061.197.073.295.061.295ZM476.769 360.287c.072.107.13.222.17.345.11.258.256.59.426 1.008.389.935.912 2.251 1.593 3.912.341.861.742 1.796 1.131 2.841l1.155 3.444c.414 1.23.851 2.571 1.326 3.973.474 1.402.79 2.94 1.216 4.526 3.648 12.657 5.472 30.972 4.426 51.008-1.046 20.037-3.381 38.13-4.864 51.119-.742 6.495-1.35 11.771-1.776 15.461a696.832 696.832 0 0 1-.498 4.195l-.146 1.094a1.49 1.49 0 0 1-.073.369 1.424 1.424 0 0 1 0-.369l.085-1.107c.097-1.008.231-2.46.389-4.206.341-3.69.876-8.955 1.569-15.486 1.325-13.063 3.563-31.094 4.633-51.094 1.07-20-.73-38.216-4.22-50.873l-1.216-4.526-1.216-3.961c-.389-1.23-.754-2.399-1.094-3.456-.341-1.058-.754-2.005-1.082-2.866-.633-1.685-1.119-3.001-1.484-3.949-.146-.43-.267-.762-.365-1.033a1.262 1.262 0 0 1-.085-.369ZM214.624 494.874c-.17 0-.377-9.373-.45-20.91-.073-11.537 0-20.91.182-20.91.183 0 .377 9.373.45 20.91.073 11.537 0 20.91-.182 20.91ZM390.093 551.638v-.516c0-.369.097-.861.17-1.501.17-1.353.401-3.284.705-5.769.158-1.23.329-2.644.523-4.157.195-1.513.341-3.186.523-4.92.353-3.567.839-7.614 1.216-12.115.182-2.239.365-4.601.572-7.048.206-2.448.304-5.006.462-7.651.364-5.289.523-10.959.729-16.912.268-11.919.231-25.031-.377-38.77-.608-13.739-1.848-26.802-3.222-38.647-.766-5.916-1.435-11.537-2.298-16.765-.402-2.619-.754-5.153-1.216-7.576-.462-2.423-.839-4.748-1.216-6.974-.742-4.441-1.593-8.426-2.286-11.944-.353-1.759-.669-3.395-.973-4.92-.304-1.525-.633-2.866-.912-4.096l-1.216-5.67c-.122-.627-.231-1.119-.304-1.476-.073-.357-.085-.517-.085-.517.061.16.11.325.146.492l.377 1.464 1.349 5.658.961 4.084 1.034 4.92c.717 3.505 1.605 7.49 2.371 11.931.405 2.222.81 4.547 1.216 6.974.438 2.46.79 4.92 1.216 7.577.875 5.239 1.568 10.861 2.359 16.777 1.398 11.857 2.59 24.932 3.271 38.683.681 13.752.632 26.888.328 38.819-.231 5.966-.401 11.636-.79 16.925-.17 2.644-.292 5.203-.499 7.663-.207 2.46-.425 4.809-.62 7.06-.34 4.502-.863 8.61-1.216 12.103-.207 1.784-.401 3.444-.571 4.92-.171 1.476-.402 2.903-.584 4.158-.353 2.46-.632 4.403-.815 5.744l-.231 1.5a2.933 2.933 0 0 1-.097.492ZM415.799 418.872h.243l.766-.086 2.979-.344 11.394-1.23 40.554-4.256h.304v.307c.304 12.411.669 26.458 1.046 41.353v.135l-.085.086-4.864 5.326-17.73 19.164-.158.172-.206-.111-29.878-15.006-.133-.061v-.111c-1.301-13.715-2.432-25.055-3.125-33.013-.365-3.912-.645-6.987-.839-9.115-.086-1.02-.159-1.808-.207-2.386-.049-.578 0-.787 0-.787s0 .295.109.836c.11.542.158 1.39.28 2.46.219 2.153.547 5.24.973 9.176.814 7.897 1.97 19.176 3.38 32.817l-.146-.209 29.914 14.919-.353.062 17.693-19.237 4.864-5.314-.085.222c-.353-14.896-.693-28.93-.985-41.353l.316.271-40.432 3.911-11.467 1.082-3.052.271-.79.074-.28-.025Z" fill="#000"/><path d="M472.112 427.531c-.689.194-1.393.33-2.104.406-1.362.222-3.332.505-5.776.824-4.864.628-11.661 1.353-19.14 2.079l-19.164 1.894-5.8.615c-.704.115-1.415.168-2.128.16a12.986 12.986 0 0 1 2.104-.406c1.362-.221 3.332-.504 5.776-.824 4.864-.627 11.661-1.353 19.152-2.079l19.152-1.894 5.8-.615a12.432 12.432 0 0 1 2.128-.16Z" fill="#000"/><path d="m483.859 475.907 2.042 25.129c4.512-21.525 11.601-44.661 10.495-66.629-1.107-21.968-3.15-42.988-15.383-62.878a126.165 126.165 0 0 1 7.187 46.74c-1.119 25.707-4.341 57.638-4.341 57.638Z" fill="#000" opacity=".3"/><path d="M206.574 429.13a7.015 7.015 0 0 0-3.283-3.481c-1.703-.59-3.551.246-5.168 1.058l-44.117 22.214c-2.906 1.464-6.08 3.198-7.15 6.273-1.398 3.936 1.216 8.093 3.648 11.476 4.062 5.646 8.926 11.796 15.808 12.595l37.952-26.322c4.633-.689 7.515-5.916 7.296-10.652-.219-4.735-2.627-9.052-4.986-13.161Z" fill="#5ED8FF"/><path d="M211.365 445.219a2.444 2.444 0 0 1-.389.43l-1.216 1.144a153.4 153.4 0 0 1-4.524 4.047 211.986 211.986 0 0 1-15.808 12.374c-6.42 4.551-12.293 8.302-16.756 10.836-2.213 1.292-4.025 2.3-5.29 2.964l-1.459.751c-.34.172-.523.246-.535.221.141-.134.301-.246.474-.332l1.399-.861 5.18-3.137a275.091 275.091 0 0 0 16.659-11.008 278.586 278.586 0 0 0 15.808-12.189l4.657-3.9 1.216-1.045c.414-.197.572-.32.584-.295Z" fill="#000"/><path d="M419.702 310.054c-5.192 17.441-12.464 37.171-18.604 54.12-5.229-4.489-12.549-10.43-17.79-14.932a148.65 148.65 0 0 0 16.16 25.547c.73.922 1.703 1.931 2.833 1.71 1.131-.222 1.642-1.403 2.031-2.46l9.57-25.621c4.475-11.98 8.792-25.953 5.8-38.364Z" fill="#000" opacity=".3"/><path d="M337.622 120.302c15.808-4.6 30.595 0 45.175 7.651 14.58 7.65 26.338 20.282 33.951 34.981 8.025 15.485 11.576 33.53 8.67 50.762-2.907 17.232-12.537 33.468-26.959 43.05-19.711 13.136-46.877 12.447-67.172.283-20.295-12.165-33.659-34.588-37.197-58.192-2.432-16.26-.462-33.406 7.04-47.97 7.503-14.563 20.77-26.371 36.48-30.577" fill="#263238"/><path d="M389.521 170.351c-3.052-5.941-2.918-12.989-4.584-19.484-3.648-14.28-16.538-24.6-30.546-28.72-13.023-3.85-28.09-.959-42.56 5.658-9.898 4.539-18.909 11.5-24.819 20.725a46.365 46.365 0 0 0-3.648 41.894l72.219-19.212c7.515 4.92 15.212 10 23.906 12.3a15.33 15.33 0 0 0 7.807.356 6.858 6.858 0 0 0 3.372-1.944 6.987 6.987 0 0 0 1.796-3.48c.304-2.927-1.617-5.498-2.943-8.093Z" fill="#263238"/><path d="m406.752 299.882-18.641-132.619c-.827-6.273-3.648-12.669-9.886-12.373l-65.664-6.396c-20.575.959-30.23 28.29-28.406 48.99 2.031 23.051 5.399 51.107 10.64 67.737 10.543 33.419 37.161 33.763 37.161 33.763s1.617 6.642 3.648 19.065l42.56 28.635 28.588-46.802Z" fill="#FFBF9D"/><path d="M300.024 222.712a4.446 4.446 0 0 0 1.672 2.889 4.352 4.352 0 0 0 3.192.887 4.16 4.16 0 0 0 1.605-.45 4.223 4.223 0 0 0 2.105-2.524 4.297 4.297 0 0 0 .169-1.676 4.478 4.478 0 0 0-1.675-2.889 4.377 4.377 0 0 0-3.189-.899 4.213 4.213 0 0 0-2.907 1.507 4.298 4.298 0 0 0-.972 3.155ZM292.363 211.088c.62.492 3.538-2.46 8.22-3.185 4.682-.726 8.451 1.131 8.877.467.207-.295-.499-1.23-2.153-2.116a12.032 12.032 0 0 0-7.21-1.082 11.49 11.49 0 0 0-6.433 3.259c-1.277 1.329-1.605 2.399-1.301 2.657ZM343.228 215.602a4.45 4.45 0 0 0 1.669 2.898 4.352 4.352 0 0 0 3.195.891 4.16 4.16 0 0 0 1.605-.45 4.2 4.2 0 0 0 1.305-1.046 4.278 4.278 0 0 0 .969-3.154 4.449 4.449 0 0 0-1.668-2.897 4.353 4.353 0 0 0-3.196-.891 4.18 4.18 0 0 0-2.906 1.5 4.288 4.288 0 0 0-.973 3.149ZM336.832 204.828c.62.492 3.551-2.46 8.22-3.186 4.67-.726 8.451 1.132 8.877.467.207-.295-.499-1.23-2.152-2.115a12.038 12.038 0 0 0-7.223-1.083 11.543 11.543 0 0 0-6.506 3.309c-1.216 1.23-1.544 2.46-1.216 2.608ZM326.764 242.552c0-.271-3.004-.332-7.795-.209-1.216 0-2.432 0-2.712-.8-.279-.799-.109-2.202.256-3.69a5884.41 5884.41 0 0 1 2.152-9.729c2.918-13.85 4.864-25.154 4.292-25.264-.571-.111-3.368 11.07-6.298 24.846-.694 3.407-1.362 6.666-1.983 9.778-.243 1.439-.79 3.112.098 4.822a2.976 2.976 0 0 0 2.225 1.463 7.61 7.61 0 0 0 2.067 0c4.779-.516 7.722-.959 7.698-1.217Z" fill="#263238"/><path d="M331.968 298.984c15.988-2.223 31.051-8.896 43.508-19.274 0 0-10.615 26.876-41.344 29.582l-2.164-10.308ZM330.46 253.646a8.566 8.566 0 0 1 2.979-3.089 8.428 8.428 0 0 1 4.086-1.24 7.664 7.664 0 0 1 3.089.455 7.742 7.742 0 0 1 2.663 1.648 5.041 5.041 0 0 1 1.216 5.584c-.985 1.98-3.563 2.805-5.886 2.46a17.752 17.752 0 0 1-6.517-2.681 5.13 5.13 0 0 1-1.545-1.23 1.61 1.61 0 0 1-.267-1.759" fill="#FF9A6C"/><path d="M341.015 243.696c-.778.073 0 5.215-3.806 9.52s-9.266 4.588-9.205 5.301c0 .344 1.362.812 3.648.529a12.74 12.74 0 0 0 7.734-4.145 11.31 11.31 0 0 0 2.857-7.921c-.134-2.177-.888-3.358-1.228-3.284ZM335.494 190.707c.657 1.23 5.229-.111 10.811-.295 5.581-.185 10.251.652 10.798-.615.243-.603-.706-1.685-2.688-2.657a18.647 18.647 0 0 0-8.31-1.575 18.67 18.67 0 0 0-8.154 2.264c-1.885 1.132-2.748 2.3-2.457 2.878ZM290.624 190.215c.985.947 4.037-.664 7.904-1.316s7.296-.381 7.831-1.624c.255-.602-.426-1.586-2.006-2.386a11.49 11.49 0 0 0-6.696-.763 11.565 11.565 0 0 0-5.987 3.125c-1.228 1.316-1.508 2.497-1.046 2.964Z" fill="#263238"/><path d="M400.149 158.998c-8.852-18.991-40.882-42.571-61.213-38.352l-30.145 24.305a32.282 32.282 0 0 0 9.404 14.235 31.747 31.747 0 0 0 15.281 7.364c6.019 1.009 13.072.553 17.182 5.129 4.11 4.576 3.125 12.448 7.101 17.306 5.509 6.741 17.863 4.723 22.314 12.226 1.958 3.272 1.727 7.528 3.721 10.775 2.675 4.317 14.945 8.61 19.456 6.421 4.511-2.19 3.49-10.357 4.475-14.871 1.69-7.687.085-11.341-1.326-15.326-3.295-9.446-2.018-20.159-6.25-29.212Z" fill="#263238"/><path d="M389.789 224.36c-.377-2.558 1.629-9.016 4.061-9.84 6.494-2.066 18.569-3.383 21.256 13.69 3.648 23.37-20.234 22.251-20.392 21.586-.158-.664-3.612-16.654-4.925-25.436Z" fill="#FFBF9D"/><path d="M400.368 239.833c.097-.098.45.222 1.216.419a3.975 3.975 0 0 0 3.016-.419c2.286-1.291 3.721-5.535 3.173-9.766a13.684 13.684 0 0 0-2.042-5.633 4.734 4.734 0 0 0-1.435-1.757 4.642 4.642 0 0 0-2.08-.875 2.029 2.029 0 0 0-1.364.347 2.074 2.074 0 0 0-.824 1.153c-.207.701 0 1.144-.11 1.23-.109.086-.547-.307-.523-1.304.04-.596.281-1.16.681-1.599a3.04 3.04 0 0 1 2.128-.959c1.8-.16 3.648 1.23 4.767 2.94a14.175 14.175 0 0 1 2.432 6.285c.596 4.723-1.094 9.508-4.28 11.07a4.352 4.352 0 0 1-3.77 0c-.851-.615-1.058-1.082-.985-1.132Z" fill="#FF9A6C"/><path d="M314.725 137.091c-1.058 9.84-14.033 23.678-19.456 31.833-10.421 15.559-12.269 20.541-8.597 52.226-6.907-10.295-12.452-20.529-13.376-32.94-.924-12.41 2.164-25.289 9.655-35.153 7.491-9.865 19.541-16.359 31.835-15.99M369.822 103.722c4.864-5.425 11.893-8.955 19.189-10.8 10.396-2.632 21.815-1.919 31.275 2.657 9.461 4.576 16.781 13.161 18.69 23.001a28.594 28.594 0 0 1-1.277 15.093 28.278 28.278 0 0 1-8.791 12.262 46.737 46.737 0 0 0 19.224 11.39c-1.969 2.989-5.605 4.735-9.278 5.363a42.071 42.071 0 0 1-11.114-.074 19.177 19.177 0 0 0 10.628 7.847 34.874 34.874 0 0 1-18.106-.602 70.03 70.03 0 0 1-16.38-7.442c-17.79-10.443-27.603-19.594-39.617-35.67-1.569-6.937.657-17.589 5.557-23.025Z" fill="#263238"/><path d="M408.175 153.02c-13.06-19.299-29.683-29.618-44.725-32.829l44.725 32.829Z" fill="#263238"/><path d="M363.45 120.191c.69.279 1.402.498 2.128.652 1.374.394 3.356.996 5.74 1.919a70.461 70.461 0 0 1 17.328 9.84 89.428 89.428 0 0 1 14.373 13.911 236.113 236.113 0 0 1 3.745 4.797c.418.628.89 1.216 1.411 1.759a13.777 13.777 0 0 0-1.216-1.919c-.779-1.23-2.019-2.89-3.587-4.92a82.202 82.202 0 0 0-14.252-14.243 65.75 65.75 0 0 0-17.632-9.717 50.453 50.453 0 0 0-5.837-1.71 13.913 13.913 0 0 0-2.201-.369ZM423.74 169.465l-.292.098-.851.345c-.73.32-1.824.738-3.259 1.23a52.04 52.04 0 0 1-12.525 2.583 67.723 67.723 0 0 1-18.885-1.23 121.549 121.549 0 0 1-22.204-6.999c-7.661-3.161-14.884-6.408-21.316-9.594a127.25 127.25 0 0 1-16.453-9.643 81.745 81.745 0 0 1-9.947-8.167c-1.118-1.046-1.921-1.919-2.432-2.46l-.644-.652c-.146-.135-.219-.209-.231-.197-.012.012 0 .086.182.246l.596.701a33.085 33.085 0 0 0 2.432 2.595 76.15 76.15 0 0 0 9.862 8.377c5.221 3.71 10.722 7 16.452 9.84 6.445 3.235 13.656 6.506 21.329 9.68a120.227 120.227 0 0 0 22.35 6.974 66.588 66.588 0 0 0 19.055 1.058 50.503 50.503 0 0 0 12.476-2.78c1.423-.554 2.505-1.009 3.222-1.378l.815-.406c.182-.159.28-.209.268-.221ZM354.841 285.294l-2.201-4.354c.158-.086 15.431-8.007 21.304-13.001 13.838-11.759 26.558-30.541 26.692-30.75l4.012 2.767c-.535.8-13.218 19.533-27.579 31.734-6.323 5.339-21.584 13.272-22.228 13.604Z" fill="#455A64"/><path d="M366.211 271.703s-20.867 9.421-20.867 11.512c0 2.091 3.308 6.273 5.788 6.064 2.481-.209 9.655-4.292 10.944-5.965 1.289-1.673 3.575-5.978 6.08-8.069l-1.945-3.542Z" fill="#263238"/><path d="m404.478 208.37-4.864-.234a116.408 116.408 0 0 0-7.126-41.586c-10.555-27.503-30.85-42.263-60.301-43.886a35.414 35.414 0 0 0-8.001.553l2.128-2.042a11.81 11.81 0 0 1 9.217-3.21c37.185 3.259 53.99 27.171 61.542 46.949a119.311 119.311 0 0 1 7.405 43.456Z" fill="#455A64"/><path d="M402.046 253.105c8.509 0 15.407-10.033 15.407-22.411 0-12.377-6.898-22.41-15.407-22.41s-15.407 10.033-15.407 22.41c0 12.378 6.898 22.411 15.407 22.411Z" fill="#455A64"/><path d="M417.453 230.694a1.053 1.053 0 0 1 0-.307c0-.246 0-.541-.073-.91a32.02 32.02 0 0 0-.353-3.469 26.77 26.77 0 0 0-4.754-11.722 17.277 17.277 0 0 0-2.894-3.013 13.12 13.12 0 0 0-3.928-2.153 10.83 10.83 0 0 0-4.718-.455 12.073 12.073 0 0 0-4.718 1.784 18.947 18.947 0 0 0-6.737 8.61 30.801 30.801 0 0 0-2.3 11.685c0 4.01.781 7.98 2.3 11.685a18.929 18.929 0 0 0 6.737 8.61 12.07 12.07 0 0 0 4.718 1.783c1.587.193 3.196.038 4.718-.455a13.139 13.139 0 0 0 3.928-2.152 17.724 17.724 0 0 0 2.894-3.014 26.764 26.764 0 0 0 4.754-11.722 32.28 32.28 0 0 0 .353-3.468c0-.369 0-.665.073-.911a.988.988 0 0 1 0-.307.834.834 0 0 1 0 .307v.911a30.215 30.215 0 0 1-.243 3.505 26.398 26.398 0 0 1-4.645 11.956 17.677 17.677 0 0 1-2.943 3.124 13.342 13.342 0 0 1-4.074 2.275c-1.594.53-3.283.702-4.949.505a12.533 12.533 0 0 1-4.949-1.845 19.274 19.274 0 0 1-6.992-8.807 31.185 31.185 0 0 1-2.371-11.931c0-4.097.806-8.153 2.371-11.931a19.274 19.274 0 0 1 6.992-8.807 12.518 12.518 0 0 1 4.949-1.845 11.443 11.443 0 0 1 4.949.504 13.324 13.324 0 0 1 4.074 2.276 17.26 17.26 0 0 1 2.943 3.124 26.29 26.29 0 0 1 4.645 11.956c.148 1.158.229 2.325.243 3.493v.922c.008.07.008.14 0 .209Z" fill="#263238"/><path d="M404.417 243.708c5.42 0 9.813-6.388 9.813-14.268 0-7.88-4.393-14.268-9.813-14.268-5.419 0-9.813 6.388-9.813 14.268 0 7.88 4.394 14.268 9.813 14.268Z" fill="#455A64"/><path d="M414.23 229.44c-.073 0 0-1.083-.352-2.989a16.78 16.78 0 0 0-3.04-7.38 9.106 9.106 0 0 0-4.305-3.235 6.844 6.844 0 0 0-2.967-.283 7.512 7.512 0 0 0-2.955 1.119 11.992 11.992 0 0 0-4.244 5.412 19.304 19.304 0 0 0-1.447 7.38 19.063 19.063 0 0 0 1.447 7.38 11.981 11.981 0 0 0 4.244 5.412c.896.58 1.903.961 2.955 1.12.998.125 2.01.028 2.967-.283a9.106 9.106 0 0 0 4.305-3.235 16.78 16.78 0 0 0 3.04-7.38c.304-1.907.279-2.989.352-2.977.017.258.017.517 0 .775a17.82 17.82 0 0 1-.145 2.239 16.57 16.57 0 0 1-2.931 7.65 9.457 9.457 0 0 1-4.499 3.469 7.212 7.212 0 0 1-3.186.344 8.142 8.142 0 0 1-3.198-1.23 12.39 12.39 0 0 1-4.499-5.645 19.979 19.979 0 0 1 0-15.289 12.393 12.393 0 0 1 4.499-5.646 8.188 8.188 0 0 1 3.186-1.23 7.28 7.28 0 0 1 3.198.345 9.455 9.455 0 0 1 4.499 3.468 16.57 16.57 0 0 1 2.931 7.651c.095.742.144 1.49.145 2.238a6.28 6.28 0 0 1 0 .8Z" fill="#263238"/><path d="M405.098 239.698c3.895 0 7.053-4.593 7.053-10.258 0-5.666-3.158-10.258-7.053-10.258s-7.053 4.592-7.053 10.258c0 5.665 3.158 10.258 7.053 10.258Z" fill="#455A64"/><path d="M412.151 229.44c-.061 0-.061-.775-.28-2.14a12.376 12.376 0 0 0-2.213-5.302 6.466 6.466 0 0 0-3.064-2.3 4.819 4.819 0 0 0-4.195.603c-2.639 1.759-4.037 5.449-4.05 9.127-.012 3.677 1.411 7.38 4.05 9.138a4.815 4.815 0 0 0 4.195.603 6.46 6.46 0 0 0 3.064-2.3 12.372 12.372 0 0 0 2.213-5.301c.219-1.366.219-2.14.28-2.128.029.183.029.37 0 .553a12.58 12.58 0 0 1-.085 1.612 11.892 11.892 0 0 1-2.092 5.547 6.91 6.91 0 0 1-3.271 2.46 5.415 5.415 0 0 1-2.322.258 5.848 5.848 0 0 1-2.335-.861 8.976 8.976 0 0 1-3.271-4.108 14.352 14.352 0 0 1 0-11.07 8.976 8.976 0 0 1 3.271-4.108 5.848 5.848 0 0 1 2.335-.861 5.415 5.415 0 0 1 2.322.258 6.91 6.91 0 0 1 3.271 2.46 11.892 11.892 0 0 1 2.092 5.547c.063.535.091 1.073.085 1.612.044.231.044.469 0 .701Z" fill="#263238"/></g><defs><filter id="a" x="-4" y=".5" width="616" height="623" filterUnits="userSpaceOnUse" color-interpolation-filters="sRGB"><feFlood flood-opacity="0" result="BackgroundImageFix"/><feColorMatrix in="SourceAlpha" values="0 0 0 0 0 0 0 0 0 0 0 0 0 0 0 0 0 0 127 0" result="hardAlpha"/><feOffset dy="4"/><feGaussianBlur stdDeviation="2"/><feComposite in2="hardAlpha" operator="out"/><feColorMatrix values="0 0 0 0 0 0 0 0 0 0 0 0 0 0 0 0 0 0 0.25 0"/><feBlend in2="BackgroundImageFix" result="effect1_dropShadow_3_207"/><feBlend in="SourceGraphic" in2="effect1_dropShadow_3_207" result="shape"/></filter></defs></svg>